<?xml version="1.0" encoding="UTF-8" standalone="no"?>
<svg width="50px" height="90px" viewBox="0 0 50 90" version="1.1" xmlns="http://www.w3.org/2000/svg" xmlns:xlink="http://www.w3.org/1999/xlink" xmlns:sketch="http://www.bohemiancoding.com/sketch/ns">
    <!-- Generator: Sketch 3.1.1 (8761) - http://www.bohemiancoding.com/sketch -->
    <title>andriod</title>
    <desc>Created with Sketch.</desc>
    <defs></defs>
    <g id="Page-1" stroke="none" stroke-width="1" fill="none" fill-rule="evenodd" sketch:type="MSPage">
        <g id="andriod" sketch:type="MSLayerGroup" transform="translate(0.000000, 1.000000)" fill="#9B9B9B">
            <g id="Group" transform="translate(0.000000, -0.362180)" sketch:type="MSShapeGroup">
                <path d="M7.125,0.26843 C3.425484,0.26843 0.4375,2.9914514 0.4375,6.36218 L0.4375,82.86218 C0.4375,86.232909 3.425484,88.95593 7.125,88.95593 L42.375,88.95593 C46.074516,88.95593 49.0625,86.232909 49.0625,82.86218 L49.0625,6.36218 C49.0625,2.9914514 46.074516,0.26843 42.375,0.26843 L7.125,0.26843 L7.125,0.26843 Z M38.96875,2.58093 C39.659106,2.58093 40.21875,3.1405741 40.21875,3.83093 C40.21875,4.521286 39.659106,5.08093 38.96875,5.08093 C38.278394,5.08093 37.71875,4.521286 37.71875,3.83093 C37.71875,3.1405741 38.278394,2.58093 38.96875,2.58093 L38.96875,2.58093 Z M20.53125,3.23718 L28.96875,3.23718 C29.168398,3.23718 29.34375,3.4185109 29.34375,3.64343 C29.34375,3.8683491 29.168398,4.04968 28.96875,4.04968 L20.53125,4.04968 C20.331602,4.04968 20.15625,3.8683491 20.15625,3.64343 C20.15625,3.4185109 20.331602,3.23718 20.53125,3.23718 L20.53125,3.23718 Z M7.15625,3.67468 C7.384314,3.67468 7.5625,3.852866 7.5625,4.08093 C7.5625,4.308994 7.384314,4.51843 7.15625,4.51843 C6.928186,4.51843 6.75,4.308994 6.75,4.08093 C6.75,3.852866 6.928186,3.67468 7.15625,3.67468 L7.15625,3.67468 Z M8.59375,3.70593 C8.809486,3.70593 9,3.8651938 9,4.08093 C9,4.2966662 8.809486,4.48718 8.59375,4.48718 C8.378014,4.48718 8.21875,4.2966662 8.21875,4.08093 C8.21875,3.8651938 8.378014,3.70593 8.59375,3.70593 L8.59375,3.70593 Z M2.65625,7.79968 L46.84375,7.79968 L46.84375,79.58093 L2.65625,79.58093 L2.65625,7.79968 L2.65625,7.79968 Z M19.40625,82.67468 L30.09375,82.67468 C30.833653,82.67468 31.4375,83.145258 31.4375,83.73718 L31.4375,84.95593 C31.4375,85.547852 30.833653,86.01843 30.09375,86.01843 L19.40625,86.01843 C18.666347,86.01843 18.0625,85.547852 18.0625,84.95593 L18.0625,83.73718 C18.0625,83.145258 18.666347,82.67468 19.40625,82.67468 L19.40625,82.67468 Z" id="Shape"></path>
            </g>
        </g>
    </g>
</svg>