<?xml version="1.0" encoding="UTF-8" standalone="no"?>
<svg width="62px" height="59px" viewBox="0 0 62 59" version="1.1" xmlns="http://www.w3.org/2000/svg" xmlns:xlink="http://www.w3.org/1999/xlink" xmlns:sketch="http://www.bohemiancoding.com/sketch/ns">
    <!-- Generator: Sketch 3.1.1 (8761) - http://www.bohemiancoding.com/sketch -->
    <title>noun_56416_cc</title>
    <desc>Created with Sketch.</desc>
    <defs></defs>
    <g id="Page-1" stroke="none" stroke-width="1" fill="none" fill-rule="evenodd" sketch:type="MSPage">
        <g id="noun_56416_cc" sketch:type="MSLayerGroup" fill="#68BDDC">
            <g id="Group" sketch:type="MSShapeGroup">
                <g transform="translate(13.000000, 27.000000)" id="Shape">
                    <path d="M3.368,6.862 C1.339,6.862 -0.313,5.211 -0.313,3.181 C-0.313,1.151 1.338,-0.5 3.368,-0.5 C5.398,-0.5 7.049,1.151 7.049,3.181 C7.049,5.211 5.397,6.862 3.368,6.862 L3.368,6.862 Z M3.368,0.763 C2.034,0.763 0.949,1.848 0.949,3.182 C0.949,4.516 2.034,5.601 3.368,5.601 C4.702,5.601 5.787,4.516 5.787,3.182 C5.787,1.848 4.702,0.763 3.368,0.763 L3.368,0.763 Z"></path>
                    <path d="M13.884,6.862 C11.854,6.862 10.203,5.211 10.203,3.181 C10.203,1.151 11.854,-0.5 13.884,-0.5 C15.914,-0.5 17.565,1.151 17.565,3.181 C17.565,5.211 15.914,6.862 13.884,6.862 L13.884,6.862 Z M13.884,0.763 C12.551,0.763 11.465,1.848 11.465,3.182 C11.465,4.516 12.55,5.601 13.884,5.601 C15.218,5.601 16.303,4.516 16.303,3.182 C16.304,1.848 15.218,0.763 13.884,0.763 L13.884,0.763 Z"></path>
                    <path d="M24.401,6.862 C22.371,6.862 20.72,5.211 20.72,3.181 C20.72,1.151 22.371,-0.5 24.401,-0.5 C26.431,-0.5 28.082,1.151 28.082,3.181 C28.082,5.211 26.431,6.862 24.401,6.862 L24.401,6.862 Z M24.401,0.763 C23.068,0.763 21.982,1.848 21.982,3.182 C21.982,4.516 23.067,5.601 24.401,5.601 C25.735,5.601 26.82,4.516 26.82,3.182 C26.82,1.848 25.735,0.763 24.401,0.763 L24.401,0.763 Z"></path>
                </g>
                <g id="Shape">
                    <path d="M11.738,59.42 C11.657,59.42 11.575,59.405 11.496,59.372 C11.26,59.275 11.107,59.044 11.107,58.789 L11.107,49.009 L10.806,49.009 C4.659,49.009 -0.342,44.008 -0.342,37.861 L-0.342,20.403 C-0.342,14.917 3.59,10.294 9.006,9.413 C9.346,9.355 9.674,9.59 9.73,9.934 C9.786,10.278 9.553,10.602 9.209,10.658 C4.406,11.44 0.92,15.538 0.92,20.402 L0.92,37.859 C0.92,43.31 5.355,47.745 10.806,47.745 L11.738,47.745 C12.086,47.745 12.369,48.027 12.369,48.376 L12.369,57.264 L21.703,47.93 C21.821,47.812 21.982,47.745 22.149,47.745 L42.484,47.745 C47.537,47.745 51.761,43.96 52.308,38.942 C52.346,38.596 52.654,38.345 53.004,38.383 C53.35,38.421 53.6,38.732 53.563,39.079 C52.946,44.739 48.184,49.007 42.485,49.007 L22.411,49.007 L12.184,59.235 C12.063,59.356 11.902,59.42 11.738,59.42 L11.738,59.42 Z"></path>
                    <path d="M52.936,39.643 C52.776,39.643 52.621,39.582 52.502,39.47 C52.359,39.335 52.288,39.14 52.309,38.945 C52.35,38.559 52.371,38.204 52.371,37.861 L52.371,20.403 C52.371,14.952 47.937,10.518 42.486,10.518 L10.806,10.518 C10.315,10.518 9.793,10.564 9.209,10.659 C9.016,10.692 8.816,10.63 8.674,10.494 C8.531,10.358 8.46,10.164 8.481,9.968 C9.098,4.308 13.86,0.039 19.559,0.039 L51.238,0.039 C57.385,0.039 62.386,5.04 62.386,11.186 L62.386,28.643 C62.386,34.13 58.455,38.752 53.038,39.634 C53.003,39.64 52.969,39.643 52.936,39.643 L52.936,39.643 Z M10.806,9.256 L42.485,9.256 C48.632,9.256 53.632,14.257 53.632,20.403 L53.632,37.86 C53.632,37.981 53.63,38.103 53.625,38.227 C58.015,37.147 61.123,33.237 61.123,28.643 L61.123,11.187 C61.123,5.736 56.688,1.302 51.237,1.302 L19.558,1.302 C14.777,1.302 10.74,4.689 9.855,9.303 C10.184,9.271 10.499,9.256 10.806,9.256 L10.806,9.256 Z"></path>
                    <path d="M52.936,39.643 C52.914,39.643 52.891,39.642 52.868,39.639 C52.521,39.602 52.27,39.291 52.308,38.945 C52.349,38.559 52.37,38.204 52.37,37.861 L52.37,20.403 C52.37,14.952 47.936,10.518 42.485,10.518 L10.806,10.518 C10.315,10.518 9.793,10.564 9.209,10.659 C8.864,10.718 8.541,10.482 8.485,10.138 C8.429,9.794 8.662,9.47 9.006,9.414 C9.657,9.308 10.245,9.256 10.805,9.256 L42.484,9.256 C48.631,9.256 53.631,14.257 53.631,20.403 L53.631,37.86 C53.631,38.248 53.608,38.647 53.562,39.078 C53.528,39.403 53.255,39.643 52.936,39.643 L52.936,39.643 Z"></path>
                </g>
            </g>
        </g>
    </g>
</svg>