<?xml version="1.0" encoding="UTF-8" standalone="no"?>
<svg width="44px" height="44px" viewBox="0 0 44 44" version="1.1" xmlns="http://www.w3.org/2000/svg" xmlns:xlink="http://www.w3.org/1999/xlink" xmlns:sketch="http://www.bohemiancoding.com/sketch/ns">
    <!-- Generator: Sketch 3.1.1 (8761) - http://www.bohemiancoding.com/sketch -->
    <title>noun_6158_cc</title>
    <desc>Created with Sketch.</desc>
    <defs></defs>
    <g id="Page-1" stroke="none" stroke-width="1" fill="none" fill-rule="evenodd" sketch:type="MSPage">
        <g id="noun_6158_cc" sketch:type="MSLayerGroup" fill-opacity="0.8" fill="#D0011B">
            <path d="M27.657,22 L42.506,7.151 C44.068,5.589 44.068,3.056 42.506,1.494 C40.944,-0.068 38.412,-0.068 36.85,1.494 L22,16.343 L7.151,1.494 C5.589,-0.068 3.056,-0.068 1.494,1.494 C-0.068,3.056 -0.068,5.589 1.494,7.151 L16.343,22 L1.494,36.85 C-0.068,38.412 -0.068,40.945 1.494,42.506 C2.275,43.287 3.299,43.678 4.323,43.678 C5.347,43.678 6.37,43.287 7.152,42.506 L22,27.657 L36.85,42.506 C37.631,43.287 38.655,43.678 39.678,43.678 C40.701,43.678 41.725,43.287 42.506,42.506 C44.068,40.944 44.068,38.411 42.506,36.85 L27.657,22 L27.657,22 Z" id="Shape" sketch:type="MSShapeGroup"></path>
        </g>
    </g>
</svg>