<?xml version="1.0" encoding="UTF-8" standalone="no"?>
<svg width="76px" height="90px" viewBox="0 0 76 90" version="1.1" xmlns="http://www.w3.org/2000/svg" xmlns:xlink="http://www.w3.org/1999/xlink" xmlns:sketch="http://www.bohemiancoding.com/sketch/ns">
    <!-- Generator: Sketch 3.1.1 (8761) - http://www.bohemiancoding.com/sketch -->
    <title>noun_29355_cc</title>
    <desc>Created with Sketch.</desc>
    <defs></defs>
    <g id="Page-1" stroke="none" stroke-width="1" fill="none" fill-rule="evenodd" sketch:type="MSPage">
        <g id="noun_29355_cc" sketch:type="MSLayerGroup" transform="translate(1.000000, 0.000000)">
            <path d="M70.386,90 L3.614,90 C1.503,90 -0.209,88.288 -0.209,86.177 C-0.209,84.066 1.502,82.354 3.614,82.354 L70.385,82.354 C72.496,82.354 74.208,84.066 74.208,86.177 C74.208,88.288 72.497,90 70.386,90 L70.386,90 Z" id="Shape" fill="#9B9B9B" sketch:type="MSShapeGroup"></path>
            <g id="Group" sketch:type="MSShapeGroup">
                <g id="Shape">
                    <path d="M73.093,11.93 L62.236,1.073 C60.794,-0.358 58.26,-0.358 56.83,1.073 L47,10.903 L9.034,48.858 C8.695,49.208 8.422,49.612 8.226,50.059 L0.1,69.042 C-0.512,70.484 -0.195,72.144 0.908,73.247 C1.64,73.979 2.623,74.372 3.617,74.372 C4.119,74.372 4.633,74.274 5.124,74.066 L24.107,65.929 C24.555,65.743 24.959,65.47 25.297,65.121 L63.262,27.167 L73.092,17.337 C73.802,16.616 74.206,15.644 74.206,14.639 C74.207,13.623 73.803,12.651 73.093,11.93 L73.093,11.93 Z M10.891,63.275 L14.965,53.751 L48.835,19.892 L54.274,25.331 L20.415,59.19 L10.891,63.275 Z M58.14,21.476 L58.151,21.487 C58.053,21.574 57.954,21.662 57.856,21.76 L58.14,21.476 L52.69,16.026 L52.406,16.31 C52.504,16.212 52.581,16.113 52.668,16.015 L52.69,16.026 L59.527,9.189 L64.977,14.639 L58.14,21.476 L58.14,21.476 Z" fill="#9B9B9B"></path>
                    <path fill="#000000" d="M52.69,16.026 L52.406,16.31 C52.504,16.212 52.581,16.113 52.668,16.015 L52.69,16.026 L52.69,16.026 Z"></path>
                    <path fill="#000000" d="M58.151,21.487 C58.053,21.574 57.954,21.662 57.856,21.76 L58.14,21.476 L58.151,21.487 L58.151,21.487 Z"></path>
                </g>
            </g>
        </g>
    </g>
</svg>