<?xml version="1.0" encoding="UTF-8" standalone="no"?>
<svg width="24px" height="48px" viewBox="0 0 24 48" version="1.1" xmlns="http://www.w3.org/2000/svg" xmlns:xlink="http://www.w3.org/1999/xlink" xmlns:sketch="http://www.bohemiancoding.com/sketch/ns">
    <!-- Generator: Sketch 3.1.1 (8761) - http://www.bohemiancoding.com/sketch -->
    <title>noun_35536_cc</title>
    <desc>Created with Sketch.</desc>
    <defs></defs>
    <g id="Page-1" stroke="none" stroke-width="1" fill="none" fill-rule="evenodd" sketch:type="MSPage">
        <g id="noun_35536_cc" sketch:type="MSLayerGroup" transform="translate(1.000000, 1.000000)" fill-opacity="0.5" fill="#417505">
            <path d="M17.99,13.775 C17.738,11.609 17.076,10.003 16.018,8.954 C14.956,7.908 13.429,7.382 11.438,7.382 C9.361,7.382 7.749,7.915 6.586,8.983 C5.421,10.047 4.837,11.535 4.837,13.44 C4.837,15.135 5.381,16.49 6.449,17.493 C7.505,18.483 9.311,19.308 11.874,19.987 C15.44,20.923 18.095,22.273 19.851,24.04 C21.583,25.79 22.449,27.974 22.449,30.589 C22.449,33.761 21.377,36.357 19.222,38.386 C17.581,39.945 15.546,40.9 13.128,41.245 L13.128,46.44 L8.998,46.44 L8.998,41.268 C6.6,40.887 4.487,39.842 2.661,38.127 C0.599,36.166 -0.428,33.949 -0.45,31.471 L-0.392,30.588 L3.63,30.588 C3.667,32.91 4.323,34.701 5.601,35.967 C6.878,37.231 8.683,37.867 11.009,37.867 C13.335,37.867 15.15,37.23 16.454,35.967 C17.758,34.701 18.409,32.944 18.409,30.696 C18.409,28.825 17.788,27.327 16.538,26.2 C15.282,25.089 13.171,24.145 10.202,23.364 C7.056,22.534 4.702,21.303 3.145,19.676 C1.582,18.048 0.807,15.993 0.807,13.516 C0.807,10.674 1.798,8.353 3.787,6.554 C5.257,5.219 6.992,4.386 8.997,4.058 L8.997,-0.439 L13.127,-0.439 L13.127,3.926 C15.51,4.222 17.459,5.077 18.986,6.497 C20.877,8.265 21.896,10.688 22.039,13.774 L17.99,13.774 L17.99,13.775 Z" id="Shape" sketch:type="MSShapeGroup"></path>
        </g>
    </g>
</svg>